<svg width="24" height="25" viewBox="0 0 24 25" fill="none" xmlns="http://www.w3.org/2000/svg">
<g id="mail">
<path id="Vector" d="M3 7.75C3 7.21957 3.21071 6.71086 3.58579 6.33579C3.96086 5.96071 4.46957 5.75 5 5.75H19C19.5304 5.75 20.0391 5.96071 20.4142 6.33579C20.7893 6.71086 21 7.21957 21 7.75M3 7.75V17.75C3 18.2804 3.21071 18.7891 3.58579 19.1642C3.96086 19.5393 4.46957 19.75 5 19.75H19C19.5304 19.75 20.0391 19.5393 20.4142 19.1642C20.7893 18.7891 21 18.2804 21 17.75V7.75M3 7.75L12 13.75L21 7.75" stroke="white" stroke-width="1.5" stroke-linecap="round" stroke-linejoin="round"/>
</g>
</svg>
